<svg xmlns="http://www.w3.org/2000/svg" viewBox="0 0 24 24" width="24" height="24" fill="none" stroke="currentColor" stroke-width="2" stroke-linecap="round" stroke-linejoin="round">
  <path d="M8 6v6"/>
  <path d="M15 6v6"/>
  <path d="M2 12h19.6"/>
  <path d="M18 18h3s.5-1.7.8-2.8c.1-.4.2-.8.2-1.2v-2.4c0-.4-.1-.8-.2-1.2l-1.4-5C20.1 4.8 19.1 4 18 4H5c-1.1 0-2.1.8-2.4 1.9l-1.4 5c-.1.4-.2.8-.2 1.2v2.4c0 .4.1.8.2 1.2.3 1.1.8 2.8.8 2.8h3"/>
  <circle cx="7" cy="18" r="2"/>
  <circle cx="16" cy="18" r="2"/>
</svg>
